<svg xmlns="http://www.w3.org/2000/svg" width="74" height="84.778" xmlns:v="https://vecta.io/nano"><style><![CDATA[svg #A,#B{animation:0.4s linear _k infinite}#A{animation-delay:0s}#B{animation-delay:0.2s}@keyframes _k{0%,50.000000%{visibility:visible}50.000500%,100%{visibility:hidden}}.B{fill:#7f7f7f}.C{fill:#717171}.D{fill:#616161}.E{fill:#010101}.F{fill:#757575}.G{fill:#797979}.H{fill:#bfbfbf}.I{fill:#afafaf}.J{fill:#9b9b9b}.K{fill:#c3c3c3}.L{fill:#898989}.M{fill:#ffc5c1}.N{fill:#ff635b}.O{visibility:hidden}.P{fill:#595959}.Q{fill:#a7a7a7}]]></style><g id="A" transform="translate(10 20)" class="O"><path d="M0 0v64h29v-2l-7 1-5-1c.849-2.679-2.46-1.428-4-1l-4-4-1-2 1-3c-1.86-2.015-1.86-3.985 0-6l-1-3 3-6 9-6v-2l2-1c3.575.73 6.576-1.137 6-5l1-1 11 1 1 2-1 2 1 1 3-1-1 2 3-1 2 1v2l9 6 3 6-1 3c1.86 2.015 1.86 3.985 0 6l1 3-1 2h-2l1 2-2 2-5-1 1 2-6 1-9-1c5.714 4.716 19.893 2 27 2V0z" class="E O"/><path d="m28 24h3l-1-2z" fill="#313131"/><path d="m31 23 9 1z" class="G"/><path d="m37 22 1 1z" class="H"/><path d="M29.667 24.333l.667.333z" fill="#a3a3a3"/><path d="m31 24v2l2-2z" fill="#212121"/><path d="M9 47l11 1c-3.273 4.551-6.668 3.4-11 1 .51 18.718 48.783 18.814 50 1-4.335 2.181-7.757 3.501-11-1l11-1c-.858-14.076-13.537-14.401-20-24l-3 2C26.661 19.187 9.981 38.762 9 47z" fill="#fff"/><path d="m35 24v2l2-2z" fill="#111"/><path d="M39.667 25.333l.667.333z" class="C"/><path d="m24 27 1 1z" class="I"/><path d="m42 27v2l2-2z" class="J"/><path d="M22.333 28.667l.333.667zm23 0l.333.667z" class="D"/><path d="M20.333 29.667l.333.667z" fill="#515151"/><path d="M37 29l4 10c1.862-3.73-.626-8.173-4-10z" class="D"/><path d="M47.333 29.667l.333.667z" fill="#515151"/><path d="m18 30-1 3z" fill="#696969"/><path d="M29 30l-7 6c3.153.988 7.752-2.642 7-6z" class="F"/><path d="m33 30v4l2-4z" class="K"/><path d="m42 30 7 6z" fill="#454545"/><path d="m49 30 3 4z" class="P"/><path d="M34 31l-5 9c3.469-1.397 6.936-5.095 5-9z" class="F"/><path d="m14 33 1 1zm39 0 1 1z" class="K"/><path d="m13 36 1 1z" fill="#8f8f8f"/><path d="M11.667 37.333l.667.333z" fill="#5d5d5d"/><path d="M55.667 37.333l.667.333z" class="C"/><path d="m9 40 1 1zm49 0 1 1z" class="Q"/><path d="M26 50l-1-3 1-1 4 1c-1.304-13.267-17.16 1.706-4 3m15 0l-1-3 1-1 4 1c-1.304-13.267-17.16 1.706-4 3z" class="E"/><path d="M8.667 43.333l.667.333z" class="L"/><path d="M58.667 43.333l.667.333z" fill="#656565"/><path d="m11 45 4 1z" class="M"/><path d="m7 46 2 6v-6z" class="D"/><path d="M9 47c2.067 5.085 8.546 6.668 11 1z" class="N"/><path d="m25 48 1 1 2-3zm15 0 1 1 2-3z" fill="#fff"/><path d="m53 46 4 1z" class="M"/><path d="M59 46l2 6v-6zM8 47v4z" fill="#9f9f9f"/><path d="m26 50 4-3zm15 0 4-3z" class="I"/><path d="M48 49c2.414 5.577 8.909 3.964 11-1z" class="N"/><path d="m60 47v4z" class="D"/><path d="m25 48 1 1zm15 0 1 1z" class="B"/><path d="m37 53 6 1z" class="J"/><path d="M8.667 54.333l.667.333z" class="B"/><path d="M22 54c3.183 8.033 18.332 8.877 21 0z" class="E"/><path d="M58.667 54.333l.667.333z" class="C"/><path d="M9.667 56.333l.667.333z" class="B"/><path d="m42 56 1 1z" fill="#979797"/><path d="M57.667 56.333l.667.333z" class="D"/><path d="m23 57 1 1z" fill="#939393"/><path d="m40 58 1 1z" class="F"/><path d="M56.667 58.333l.667.333zM13 61l3-2z" class="B"/><path d="m54 59v2h2v-2z" class="C"/><path d="m18 60-1 2h2z" class="B"/><path d="m29 60 7 1z" fill="#9f9f9f"/><path d="m49 60 3 2z" class="C"/><path d="m22 61v2h2v-2z" class="L"/><path d="m43 61 3 2z" class="G"/><path d="m29 62v2h8v-2z" class="B"/><path d="M37.667 63.333l.667.333z" fill="#c7c7c7"/></g><g id="B" class="O"><path d="m28 3h3l-1-2z" fill="#313131"/><path d="m31 2 9 1z" class="G"/><path d="m37 1 1 1z" class="H"/><path d="M29.667 3.333l.667.333z" fill="#a3a3a3"/><path d="m31 3v2l2-2z" fill="#212121"/><path d="M9 26l11 1c-3.273 4.551-6.668 3.4-11 1 .507 18.617 48.781 18.844 50 1-4.335 2.181-7.757 3.501-11-1l11-1c-.553-9.075-7.209-16.739-16-19l1 2-5-7-3 2C26.691-1.791 9.997 17.761 9 26z" fill="#fff"/><path d="m35 3v2l2-2z" fill="#111"/><path d="M39.667 4.333l.667.333z" class="C"/><path d="m24 6 1 1z" class="I"/><path d="m42 6v4l2-4z" class="J"/><path d="M22.333 7.667l.333.667zm23 0l.333.667z" class="D"/><path d="M20.333 8.667l.333.667z" fill="#535353"/><path d="M37 8l4 10c1.862-3.73-.626-8.173-4-10z" class="D"/><path d="M47.333 8.667l.333.667z" fill="#535353"/><path d="m18 9-1 3z" fill="#696969"/><path d="M29 9l-7 6c3.153.988 7.752-2.642 7-6z" class="F"/><path d="m33 9v4l2-4z" class="K"/><path d="m43 9 1 1z" fill="#0d0d0d"/><path d="m49 9 3 4z" class="P"/><path d="M34 10l-5 9c3.469-1.397 6.936-5.095 5-9z" class="F"/><path d="m44 10 5 5z" fill="#494949"/><path d="m14 12 1 1zm39 0 1 1z" class="K"/><path d="m13 15 1 1zm41 0 1 1z" fill="#8f8f8f"/><path d="M11.667 16.333l.667.333z" fill="#5f5f5f"/><path d="M55.667 16.333l.667.333z" class="C"/><path d="m28 18v2h2z" fill="#b1b1b1"/><path d="m9 19 1 1z" class="Q"/><path d="M19.667 19.333l.667.333z" class="H"/><path d="m37 21v3l10 1-5-2 5-4z" class="E"/><path d="m58 19 1 1z" class="Q"/><path d="m19 20v2h5l-4 3 8-1z" class="E"/><path d="M23.667 20.333l.667.333z" class="H"/><path d="M40.667 20.333l.667.333z" class="B"/><path d="M26.667 21.333l.667.333z" fill="#4f4f4f"/><path d="M44.667 21.333l.667.333z" class="I"/><path d="M8.667 22.333l.667.333z" class="L"/><path d="M22.667 22.333l.667.333z" fill="#474747"/><path d="M58.667 22.333l.667.333z" fill="#656565"/><path d="M45.667 23.333l.667.333z" fill="#838383"/><path d="m11 24 4 1z" class="M"/><path d="M23.667 24.333l.667.333z" class="L"/><path d="M41.667 24.333l.667.333z" class="P"/><path d="m7 25 2 6v-6z" class="D"/><path d="M9 26c2.067 5.085 8.546 6.668 11 1z" class="N"/><path d="M20.667 25.333l.667.333z" fill="#b7b7b7"/><path d="M45.667 25.333l.667.333z" class="B"/><path d="m53 25 4 1z" class="M"/><path d="M59 25l2 6v-6zM8 26v4z" fill="#9d9d9d"/><path d="M48 28c2.414 5.577 8.909 3.964 11-1z" class="N"/><path d="m60 26v4z" class="D"/><path d="m37 32 6 1z" class="J"/><path d="M8.667 33.333l.667.333z" class="B"/><path d="M22 33c3.183 8.033 18.332 8.877 21 0z" class="E"/><path d="M58.667 33.333l.667.333z" class="C"/><path d="M9.667 35.333l.667.333z" class="B"/><path d="m42 35 1 1z" fill="#979797"/><path d="M57.667 35.333l.667.333z" class="D"/><path d="m23 36 1 1z" fill="#939393"/><path d="m40 37 1 1z" class="F"/><path d="M56.667 37.333l.667.333zM13 40l3-2z" class="B"/><path d="m54 38v2h2v-2z" class="C"/><path d="m18 39-1 2h2z" class="B"/><path d="m29 39 7 1z" fill="#9d9d9d"/><path d="m49 39 3 2z" class="C"/><path d="m22 40v2h3v-2z" class="B"/><path d="m43 40 3 2z" class="G"/><path d="m27 41 6 1z" fill="#474747"/><path d="m29 42 8 1v-2z" class="B"/><path d="M37.667 42.333l.667.333z" fill="#c7c7c7"/></g></svg>