<?xml version="1.0" encoding="utf-8"?>
<svg viewBox="0 0 74 84.778" width="74" height="84.778" xmlns="http://www.w3.org/2000/svg">
  <defs>
    <style type="text/css">#_0,#_1{visibility:hidden}</style>
    <style type="text/css">svg #_0,#_1{animation:0.4s linear _k infinite}#_0{animation-delay:0s}#_1{animation-delay:0.2s}@keyframes _k{0%,50.000000%{visibility:visible}50.000500%,100%{visibility:hidden}}#_{visibility:hidden}</style>
  </defs>
  <g id="_0" transform="matrix(1, 0, 0, 1, 10, 20)">
    <path d="m0 0v64h29v-2l-7 1-5-1c.8493-2.6787-2.4601-1.4278-4-1l-4-4-1-2 1-3c-1.86016-2.0154-1.86016-3.9846 0-6l-1-3 3-6 9-6v-2l2-1c3.5753.73 6.5759-1.1375 6-5l1-1 11 1 1 2-1 2 1 1 3-1-1 2 3-1 2 1v2l9 6 3 6-1 3c1.8602 2.0154 1.8602 3.9846 0 6l1 3-1 2h-2l1 2-2 2-5-1 1 2-6 1-9-1c5.7141 4.7158 19.8926 2 27 2v-64z" fill="#010101" style="visibility: hidden;"/>
    <path d="m28 24h3l-1-2z" fill="#313131"/>
    <path d="m31 23 9 1z" fill="#797979"/>
    <path d="m37 22 1 1z" fill="#bfbfbf"/>
    <path d="m29.6667 24.3333.6666.3334z" fill="#a3a3a3"/>
    <path d="m31 24v2l2-2z" fill="#212121"/>
    <path d="m9 47 11 1c-3.2725 4.5509-6.6678 3.4001-11 1 .50987 18.7183 48.7828 18.8137 50 1-4.3346 2.1813-7.7569 3.5007-11-1l11-1c-.8578-14.0761-13.5367-14.4015-20-24l-3 2c-9.3387-6.8126-26.0188 12.7624-27 21z" fill="#fff"/>
    <path d="m35 24v2l2-2z" fill="#111"/>
    <path d="m39.6667 25.3333.6666.3334z" fill="#717171"/>
    <path d="m24 27 1 1z" fill="#afafaf"/>
    <path d="m42 27v2l2-2z" fill="#9b9b9b"/>
    <path d="m22.3333 28.6667.3334.6666zm23 0 .3334.6666z" fill="#616161"/>
    <path d="m20.3333 29.6667.3334.6666z" fill="#515151"/>
    <path d="m37 29 4 10c1.8621-3.7296-.6256-8.1727-4-10z" fill="#616161"/>
    <path d="m47.3333 29.6667.3334.6666z" fill="#515151"/>
    <path d="m18 30-1 3z" fill="#696969"/>
    <path d="m29 30-7 6c3.1532.9876 7.7516-2.6417 7-6z" fill="#757575"/>
    <path d="m33 30v4l2-4z" fill="#c3c3c3"/>
    <path d="m42 30 7 6z" fill="#454545"/>
    <path d="m49 30 3 4z" fill="#595959"/>
    <path d="m34 31-5 9c3.469-1.3968 6.936-5.0947 5-9z" fill="#757575"/>
    <path d="m14 33 1 1zm39 0 1 1z" fill="#c3c3c3"/>
    <path d="m13 36 1 1z" fill="#8f8f8f"/>
    <path d="m11.6667 37.3333.6666.3334z" fill="#5d5d5d"/>
    <path d="m55.6667 37.3333.6666.3334z" fill="#717171"/>
    <path d="m9 40 1 1zm49 0 1 1z" fill="#a7a7a7"/>
    <path d="m26 50-1-3 1-1 4 1c-1.304-13.2671-17.1598 1.7065-4 3m15 0-1-3 1-1 4 1c-1.304-13.267-17.1598 1.7065-4 3z" fill="#010101"/>
    <path d="m8.66667 43.3333.66666.3334z" fill="#898989"/>
    <path d="m58.6667 43.3333.6666.3334z" fill="#656565"/>
    <path d="m11 45 4 1z" fill="#ffc5c1"/>
    <path d="m7 46 2 6v-6z" fill="#616161"/>
    <path d="m9 47c2.0672 5.0851 8.5464 6.6682 11 1z" fill="#ff635b"/>
    <path d="m25 48 1 1 2-3zm15 0 1 1 2-3z" fill="#fff"/>
    <path d="m53 46 4 1z" fill="#ffc5c1"/>
    <path d="m59 46 2 6v-6zm-51 1v4z" fill="#9f9f9f"/>
    <path d="m26 50 4-3zm15 0 4-3z" fill="#afafaf"/>
    <path d="m48 49c2.4141 5.577 8.909 3.9636 11-1z" fill="#ff635b"/>
    <path d="m60 47v4z" fill="#616161"/>
    <path d="m25 48 1 1zm15 0 1 1z" fill="#7f7f7f"/>
    <path d="m37 53 6 1z" fill="#9b9b9b"/>
    <path d="m8.66667 54.3333.66666.3334z" fill="#7f7f7f"/>
    <path d="m22 54c3.1832 8.0331 18.3321 8.8771 21 0z" fill="#010101"/>
    <path d="m58.6667 54.3333.6666.3334z" fill="#717171"/>
    <path d="m9.66667 56.3333.66663.3334z" fill="#7f7f7f"/>
    <path d="m42 56 1 1z" fill="#979797"/>
    <path d="m57.6667 56.3333.6666.3334z" fill="#616161"/>
    <path d="m23 57 1 1z" fill="#939393"/>
    <path d="m40 58 1 1z" fill="#757575"/>
    <path d="m56.6667 58.3333.6666.3334zm-43.6667 2.6667 3-2z" fill="#7f7f7f"/>
    <path d="m54 59v2h2v-2z" fill="#717171"/>
    <path d="m18 60-1 2h2z" fill="#7f7f7f"/>
    <path d="m29 60 7 1z" fill="#9f9f9f"/>
    <path d="m49 60 3 2z" fill="#717171"/>
    <path d="m22 61v2h2v-2z" fill="#898989"/>
    <path d="m43 61 3 2z" fill="#797979"/>
    <path d="m29 62v2h8v-2z" fill="#7f7f7f"/>
    <path d="m37.6667 63.3333.6666.3334z" fill="#c7c7c7"/>
  </g>
  <g id="_1">
    <!-- <path d="m0 0v64h64v-64z" fill="#010101" style="visibility: hidden;"/> -->
    <path d="m28 3h3l-1-2z" fill="#313131"/>
    <path d="m31 2 9 1z" fill="#797979"/>
    <path d="m37 1 1 1z" fill="#bfbfbf"/>
    <path d="m29.6667 3.33333.6666.33334z" fill="#a3a3a3"/>
    <path d="m31 3v2l2-2z" fill="#212121"/>
    <path d="m9 26 11 1c-3.2725 4.5509-6.6678 3.4001-11 1 .5071 18.6166 48.7808 18.844 50 1-4.3346 2.1813-7.7569 3.5007-11-1l11-1c-.5531-9.0751-7.2085-16.7392-16-19l1 2-5-7-3 2c-9.3094-6.79128-26.00346 12.7614-27 21z" fill="#fff"/>
    <path d="m35 3v2l2-2z" fill="#111"/>
    <path d="m39.6667 4.33333.6666.33334z" fill="#717171"/>
    <path d="m24 6 1 1z" fill="#afafaf"/>
    <path d="m42 6v4l2-4z" fill="#9b9b9b"/>
    <path d="m22.3333 7.66667.3334.66666zm23 0 .3334.66666z" fill="#616161"/>
    <path d="m20.3333 8.66667.3334.66666z" fill="#535353"/>
    <path d="m37 8 4 10c1.8621-3.7296-.6256-8.17268-4-10z" fill="#616161"/>
    <path d="m47.3333 8.66667.3334.66666z" fill="#535353"/>
    <path d="m18 9-1 3z" fill="#696969"/>
    <path d="m29 9-7 6c3.1532.9876 7.7516-2.6417 7-6z" fill="#757575"/>
    <path d="m33 9v4l2-4z" fill="#c3c3c3"/>
    <path d="m43 9 1 1z" fill="#0d0d0d"/>
    <path d="m49 9 3 4z" fill="#595959"/>
    <path d="m34 10-5 9c3.469-1.3968 6.936-5.0947 5-9z" fill="#757575"/>
    <path d="m44 10 5 5z" fill="#494949"/>
    <path d="m14 12 1 1zm39 0 1 1z" fill="#c3c3c3"/>
    <path d="m13 15 1 1zm41 0 1 1z" fill="#8f8f8f"/>
    <path d="m11.6667 16.3333.6666.3334z" fill="#5f5f5f"/>
    <path d="m55.6667 16.3333.6666.3334z" fill="#717171"/>
    <path d="m28 18v2h2z" fill="#b1b1b1"/>
    <path d="m9 19 1 1z" fill="#a7a7a7"/>
    <path d="m19.6667 19.3333.6666.3334z" fill="#bfbfbf"/>
    <path d="m37 21v3l10 1-5-2 5-4z" fill="#010101"/>
    <path d="m58 19 1 1z" fill="#a7a7a7"/>
    <path d="m19 20v2h5l-4 3 8-1z" fill="#010101"/>
    <path d="m23.6667 20.3333.6666.3334z" fill="#bfbfbf"/>
    <path d="m40.6667 20.3333.6666.3334z" fill="#7f7f7f"/>
    <path d="m26.6667 21.3333.6666.3334z" fill="#4f4f4f"/>
    <path d="m44.6667 21.3333.6666.3334z" fill="#afafaf"/>
    <path d="m8.66667 22.3333.66666.3334z" fill="#898989"/>
    <path d="m22.6667 22.3333.6666.3334z" fill="#474747"/>
    <path d="m58.6667 22.3333.6666.3334z" fill="#656565"/>
    <path d="m45.6667 23.3333.6666.3334z" fill="#838383"/>
    <path d="m11 24 4 1z" fill="#ffc5c1"/>
    <path d="m23.6667 24.3333.6666.3334z" fill="#898989"/>
    <path d="m41.6667 24.3333.6666.3334z" fill="#595959"/>
    <path d="m7 25 2 6v-6z" fill="#616161"/>
    <path d="m9 26c2.0672 5.0851 8.5464 6.6682 11 1z" fill="#ff635b"/>
    <path d="m20.6667 25.3333.6666.3334z" fill="#b7b7b7"/>
    <path d="m45.6667 25.3333.6666.3334z" fill="#7f7f7f"/>
    <path d="m53 25 4 1z" fill="#ffc5c1"/>
    <path d="m59 25 2 6v-6zm-51 1v4z" fill="#9d9d9d"/>
    <path d="m48 28c2.4141 5.577 8.909 3.9636 11-1z" fill="#ff635b"/>
    <path d="m60 26v4z" fill="#616161"/>
    <path d="m37 32 6 1z" fill="#9b9b9b"/>
    <path d="m8.66667 33.3333.66666.3334z" fill="#7f7f7f"/>
    <path d="m22 33c3.1832 8.0331 18.3321 8.8771 21 0z" fill="#010101"/>
    <path d="m58.6667 33.3333.6666.3334z" fill="#717171"/>
    <path d="m9.66667 35.3333.66663.3334z" fill="#7f7f7f"/>
    <path d="m42 35 1 1z" fill="#979797"/>
    <path d="m57.6667 35.3333.6666.3334z" fill="#616161"/>
    <path d="m23 36 1 1z" fill="#939393"/>
    <path d="m40 37 1 1z" fill="#757575"/>
    <path d="m56.6667 37.3333.6666.3334zm-43.6667 2.6667 3-2z" fill="#7f7f7f"/>
    <path d="m54 38v2h2v-2z" fill="#717171"/>
    <path d="m18 39-1 2h2z" fill="#7f7f7f"/>
    <path d="m29 39 7 1z" fill="#9d9d9d"/>
    <path d="m49 39 3 2z" fill="#717171"/>
    <path d="m22 40v2h3v-2z" fill="#7f7f7f"/>
    <path d="m43 40 3 2z" fill="#797979"/>
    <path d="m27 41 6 1z" fill="#474747"/>
    <path d="m29 42 8 1v-2z" fill="#7f7f7f"/>
    <path d="m37.6667 42.3333.6666.3334z" fill="#c7c7c7"/>
  </g>
</svg>