<svg xmlns="http://www.w3.org/2000/svg" width="64" height="64" xmlns:v="https://vecta.io/nano"><style>#A,#B{animation:2s linear _k infinite}#A{animation-delay:0s}#B{animation-delay:1s}@keyframes _k{0%,50.000000%{visibility:visible}50.000050%,100%{visibility:hidden}}</style><g id="A" visibility="hidden"><path d="M0 0v64h64V0z" fill="#0d0d0d" visibility="hidden"/><path d="M34 8l-2 3-3-2c-4.151 4.891-10.327 6.573-14.671 11.185C4.986 30.104 7.816 43.27 21 46c-.133-4.206-2.785-7.974-2.708-11.996C18.503 22.946 35.428 33.478 23 40v7h20v-7c-11.574-6.23 3.297-16.658 4.494-6.984C48.002 37.122 45.125 41.699 45 46c13.901-1.099 18.761-13.815 9.471-24.907C50.131 15.912 43.386 14.167 39 9l-4 2z" fill="#fff"/><path d="M37 14l4 10c1.473-4.154-.446-7.714-4-10z" fill="#636363"/><path d="M29 15l-7 6c3.654.487 7.08-2.269 7-6z" fill="#515151"/><path d="M42.667 15.333l.667.333z" fill="#0d0d0d"/><path d="M34 16l-5 9c3.736-1.843 6.472-4.695 5-9z" fill="#757575"/><path d="m44 16 5 5z" fill="#494949"/><path d="m22 27 4 2zm20 0 4 2z" fill="#636363"/><path d="M28 36c-.537-16.34-17.291 1.132-4.04.67 1.326-.046 2.745-.433 4.04-.67m12.318-6.802c-5.517 2.934.411 9.499 5.364 7.056 5.437-2.682-.715-9.528-5.364-7.056z" fill="#010101"/><path d="m8 31v5z" fill="#9d9d9d"/><path d="m24 31-1 1 1 2 2-1zm20 0-1 1 1 2 2-1z" fill="#fff"/><path d="m59 31v6z" fill="#9d9d9d"/><path d="m18 36 3 10h2v-6l5-4zm21 0 4 4v7h2l2-11z" fill="#75cfff"/><path d="M28 44h10c-3.344-3.411-6.656-3.411-10 0z" fill="#ff0901"/><path d="M49.667 45.333l.667.333z" fill="#717171"/><path d="m31 47 8 1z" fill="#7f7f7f"/></g><g id="B" visibility="hidden"><path d="M34 8l-2 3-3-2c-4.151 4.891-10.327 6.573-14.671 11.185C4.986 30.104 7.816 43.27 21 46l-3-11h10l-5 5v7h20v-7l-5-5h10l-3 11c13.901-1.099 18.761-13.815 9.471-24.907C50.131 15.912 43.386 14.167 39 9l-4 2z" fill="#fff"/><path d="M37 14l4 10c1.473-4.154-.446-7.714-4-10z" fill="#616161"/><path d="M29 15l-7 6c3.654.487 7.08-2.269 7-6z" fill="#515151"/><path d="M42.667 15.333l.667.333z" fill="#0d0d0d"/><path d="M34 16l-5 9c3.736-1.843 6.472-4.695 5-9z" fill="#757575"/><path d="m44 16 5 5z" fill="#494949"/><path d="m8 31v5zm51 0v6z" fill="#9d9d9d"/><path d="m18 35 10 1zm20 0 10 1z" fill="#010101"/><path d="m18 36 3 10h2v-6l5-4zm21 0 4 4v7h2l2-11z" fill="#75cfff"/><path d="M28 44h10c-3.344-3.411-6.656-3.411-10 0z" fill="#ff0901"/><path d="M49.667 45.333l.667.333z" fill="#717171"/><path d="M0 0v64h64V0H0z" fill="#0d0d0d" visibility="hidden"/><path d="m31 47 8 1z" fill="#7f7f7f"/></g></svg>