<?xml version="1.0" encoding="utf-8"?>
<svg viewBox="0 0 64 64" width="64" height="64" xmlns="http://www.w3.org/2000/svg">
  <defs>
    <style type="text/css">#_0,#_1{visibility:hidden}</style>
    <style type="text/css">#_0,#_1{animation:2s linear _k infinite}#_0{animation-delay:0s}#_1{animation-delay:1s}@keyframes _k{0%,50.000000%{visibility:visible}50.000050%,100%{visibility:hidden}}#_{visibility:hidden}</style>
  </defs>
  <g id="_0">
    <path d="m0 0v64h64v-64z" fill="#0d0d0d" style="visibility: hidden;"/>
    <path d="m34 8-2 3-3-2c-4.1515 4.8907-10.3272 6.573-14.6713 11.1852-9.34269 9.9192-6.51301 23.0845 6.6713 25.8148-.1332-4.206-2.7851-7.9738-2.7083-11.9961.2109-11.0577 17.1359-.5256 4.7083 5.9961v7h20v-7c-11.574-6.2301 3.2973-16.6576 4.4938-6.9838.5079 4.1059-2.3689 8.6828-2.4938 12.9838 13.9015-1.0986 18.7606-13.815 9.4707-24.9066-4.34-5.1817-11.085-6.9268-15.4707-12.0934l-4 2z" fill="#fff"/>
    <path d="m37 14 4 10c1.473-4.1535-.4459-7.7139-4-10z" fill="#636363"/>
    <path d="m29 15-7 6c3.6544.4873 7.0799-2.2691 7-6z" fill="#515151"/>
    <path d="m42.6667 15.3333.6666.3334z" fill="#0d0d0d"/>
    <path d="m34 16-5 9c3.736-1.8431 6.4719-4.6955 5-9z" fill="#757575"/>
    <path d="m44 16 5 5z" fill="#494949"/>
    <path d="m22 27 4 2zm20 0 4 2z" fill="#636363"/>
    <path d="m28 36c-.5366-16.3398-17.2913 1.1322-4.0401.6698 1.3265-.0463 2.7453-.4331 4.0401-.6698m12.3179-6.8017c-5.5169 2.9339.4109 9.4991 5.3642 7.0556 5.4369-2.6821-.7145-9.5283-5.3642-7.0556z" fill="#010101"/>
    <path d="m8 31v5z" fill="#9d9d9d"/>
    <path d="m24 31-1 1 1 2 2-1zm20 0-1 1 1 2 2-1z" fill="#fff"/>
    <path d="m59 31v6z" fill="#9d9d9d"/>
    <path d="m18 36 3 10h2v-6l5-4zm21 0 4 4v7h2l2-11z" fill="#75cfff"/>
    <path d="m28 44h10c-3.3437-3.4107-6.6563-3.4107-10 0z" fill="#ff0901"/>
    <path d="m49.6667 45.3333.6666.3334z" fill="#717171"/>
    <path d="m31 47 8 1z" fill="#7f7f7f"/>
  </g>
  <g id="_1">
    <path d="m34 8-2 3-3-2c-4.1515 4.8907-10.3272 6.573-14.6713 11.1852-9.34269 9.9192-6.51301 23.0845 6.6713 25.8148l-3-11h10l-5 5v7h20v-7l-5-5h10l-3 11c13.9015-1.0986 18.7606-13.815 9.4707-24.9066-4.34-5.1817-11.085-6.9268-15.4707-12.0934l-4 2z" fill="#fff"/>
    <path d="m37 14 4 10c1.473-4.1535-.4459-7.7139-4-10z" fill="#616161"/>
    <path d="m29 15-7 6c3.6544.4873 7.0799-2.2691 7-6z" fill="#515151"/>
    <path d="m42.6667 15.3333.6666.3334z" fill="#0d0d0d"/>
    <path d="m34 16-5 9c3.736-1.8431 6.4719-4.6955 5-9z" fill="#757575"/>
    <path d="m44 16 5 5z" fill="#494949"/>
    <path d="m8 31v5zm51 0v6z" fill="#9d9d9d"/>
    <path d="m18 35 10 1zm20 0 10 1z" fill="#010101"/>
    <path d="m18 36 3 10h2v-6l5-4zm21 0 4 4v7h2l2-11z" fill="#75cfff"/>
    <path d="m28 44h10c-3.3437-3.4107-6.6563-3.4107-10 0z" fill="#ff0901"/>
    <path d="m49.6667 45.3333.6666.3334z" fill="#717171"/>
    <path d="M 0 0 L 0 64 L 64 64 L 64 0 L 0 0 Z" fill="#0d0d0d" style="visibility: hidden;"/>
    <path d="m31 47 8 1z" fill="#7f7f7f"/>
  </g>
</svg>