<?xml version="1.0" standalone="no"?>
<!DOCTYPE svg PUBLIC "-//W3C//DTD SVG 20010904//EN"
 "http://www.w3.org/TR/2001/REC-SVG-20010904/DTD/svg10.dtd">
<svg version="1.0" xmlns="http://www.w3.org/2000/svg"
 width="32.000000pt" height="32.000000pt" viewBox="0 0 32.000000 32.000000"
 preserveAspectRatio="xMidYMid meet">

<g transform="translate(0.000000,32.000000) scale(0.100000,-0.100000)"
fill="#000000" stroke="none">
<path d="M32 287 c-18 -18 -32 -39 -32 -47 0 -8 14 -29 32 -47 l32 -33 -32
-33 c-18 -18 -32 -40 -32 -48 0 -19 61 -79 80 -79 8 0 29 14 47 32 l33 32 33
-32 c18 -18 40 -32 48 -32 19 0 79 61 79 80 0 8 -14 29 -32 47 l-32 33 32 33
c18 18 32 40 32 48 0 19 -61 79 -80 79 -8 0 -29 -14 -47 -32 l-33 -32 -33 32
c-18 18 -40 32 -48 32 -8 0 -29 -15 -47 -33z m163 -97 l29 -30 -32 -33 -32
-32 -32 32 -32 33 29 30 c16 16 32 30 35 30 3 0 19 -14 35 -30z"/>
</g>
</svg>
