<svg height="64" width="64" xmlns="http://www.w3.org/2000/svg">
    <defs>
        <style type="text/css">#_0{visibility:hidden}</style>
    </defs>
    <g id="_0">>
        <path d="m28 9h3l-1-2z" fill="#313131"/>
        <path d="m31 8 9 1z" fill="#797979"/>
        <path d="m37 7 1 1z" fill="#bdbdbd"/>
        <path d="m29.6667 9.33333.6666.33334z" fill="#a3a3a3"/>
        <path d="m31 9v2l2-2z" fill="#212121"/>
        <path d="m39 9-3 2c-3.938-2.87283-8.4238.6581-12.0008 2.6713-8.6392 4.8623-21.34647 16.9787-12.9899 28.0255 2.1836 2.8866 6.6688 3.5785 9.9907 4.2885 9.1119 1.9476 34.9147 4.1792 37.6057-7.9892 3.7302-16.8677-12.2911-18.5126-19.6057-28.9961z" fill="#fff"/>
        <path d="m35 9v2l2-2z" fill="#111"/>
        <path d="m39.6667 10.3333.6666.3334z" fill="#717171"/>
        <path d="m24 12 1 1zm19 0 1 1z" fill="#afafaf"/>
        <path d="m22.3333 13.6667.3334.6666zm23 0 .3334.6666z" fill="#616161"/>
        <path d="m20.3333 14.6667.3334.6666z" fill="#515151"/>
        <path d="m37 14 4 10c1.8621-3.7296-.6256-8.1727-4-10z" fill="#636363"/>
        <path d="m47.3333 14.6667.3334.6666z" fill="#515151"/>
        <path d="m18 15-1 3z" fill="#696969"/>
        <path d="m29 15-7 6c3.1532.9876 7.7516-2.6417 7-6z" fill="#757575"/>
        <path d="m33 15v4l2-4z" fill="#c3c3c3"/>
        <path d="m42.6667 15.3333.6666.3334z" fill="#0f0f0f"/>
        <path d="m49 15 3 4z" fill="#595959"/>
        <path d="m34 16-5 9c3.469-1.3968 6.936-5.0947 5-9z" fill="#757575"/>
        <path d="m44 16 5 5z" fill="#4b4b4b"/>
        <path d="m14 18 1 1zm39 0 1 1z" fill="#c3c3c3"/>
        <path d="m13 21 1 1zm41 0 1 1z" fill="#8f8f8f"/>
        <path d="m11.6667 22.3333.6666.3334z" fill="#5d5d5d"/>
        <path d="m15 26 7-4z" fill="#595959"/>
        <path d="m45 22 3 1z" fill="#a3a3a3"/>
        <path d="m55.6667 22.3333.6666.3334z" fill="#717171"/>
        <path d="m22.6667 23.3333.6666.3334z" fill="#151515"/>
        <path d="m44 23 8 3z" fill="#555"/>
        <path d="m28 24v2h2z" fill="#b1b1b1"/>
        <path d="m9 25 1 1z" fill="#a7a7a7"/>
        <path d="m20.1481 26.0471c-5.7336 3.1186-.9891 12.0023 4.7038 8.9058 5.7336-3.1186.9891-12.0023-4.7038-8.9058m22 0c-5.7336 3.1186-.9891 12.0023 4.7038 8.9058 5.7336-3.1186.9891-12.0023-4.7038-8.9058z" fill="#010101"/>
        <path d="m58 25 1 1z" fill="#a7a7a7"/>
        <path d="m8.66667 28.3333.66666.3334z" fill="#8b8b8b"/>
        <path d="m58.6667 28.3333.6666.3334z" fill="#656565"/>
        <path d="m22 30-1 1v2l1 1h2l1-1v-2l-1-1zm23 0-1 1v2l1 1h2l1-1v-2l-1-1z" fill="#fff"/>
        <path d="m7 31 2 6v-6z" fill="#616161"/>
        <path d="m59 31 2 6v-6zm-51 1v4z" fill="#9f9f9f"/>
        <path d="m60 32v4z" fill="#616161"/>
        <path d="m8.66667 39.3333.66666.3334z" fill="#7f7f7f"/>
        <path d="m58.6667 39.3333.6666.3334z" fill="#717171"/>
        <path d="m28 40c3.4222 4.4941 8.5778 4.4941 12 0z" fill="#ff1d01"/>
        <path d="m9.66667 41.3333.66663.3334z" fill="#7f7f7f"/>
        <path d="m57.6667 41.3333.6666.3334z" fill="#616161"/>
        <path d="m56.6667 43.3333.6666.3334z" fill="#7d7d7d"/>
        <path d="m13 46 3-2z" fill="#7f7f7f"/>
        <path d="m54 44v2h2v-2z" fill="#717171"/>
        <path d="m18 45-1 2h2z" fill="#7f7f7f"/>
        <path d="m49 45 3 2z" fill="#717171"/>
        <path d="m22 46v2h2v-2z" fill="#8b8b8b"/>
        <path d="m43 46 3 2z" fill="#797979"/>
        <path d="m29 47v2h8v-2z" fill="#7f7f7f"/>
        <path d="m37.6667 48.3333.6666.3334z" fill="#c7c7c7"/>
    </g>
    <defs>
        <style type="text/css">#_0{animation:0.1s linear _k infinite}#_0{animation-delay:0s}@keyframes _k{0%,100.000000%{visibility:visible}100.001000%,100%{visibility:hidden}}#_{visibility:hidden}</style>
    </defs>
</svg>